<svg width="43" height="43" viewBox="0 0 43 43" fill="none" xmlns="http://www.w3.org/2000/svg">
<path d="M21.4167 41.9163C32.6925 41.9163 41.8333 32.7755 41.8333 21.4997C41.8333 10.2239 32.6925 1.08301 21.4167 1.08301C10.1409 1.08301 1 10.2239 1 21.4997C1 32.7755 10.1409 41.9163 21.4167 41.9163Z" stroke="black" stroke-width="2" stroke-linecap="round" stroke-linejoin="round"/>
<path d="M21.4167 29.6663C25.927 29.6663 29.5833 26.01 29.5833 21.4997C29.5833 16.9893 25.927 13.333 21.4167 13.333C16.9063 13.333 13.25 16.9893 13.25 21.4997C13.25 26.01 16.9063 29.6663 21.4167 29.6663Z" stroke="black" stroke-width="2" stroke-linecap="round" stroke-linejoin="round"/>
<path d="M6.98438 7.06543L15.641 15.7221" stroke="black" stroke-width="2" stroke-linecap="round" stroke-linejoin="round"/>
<path d="M27.1953 27.2783L35.852 35.935" stroke="black" stroke-width="2" stroke-linecap="round" stroke-linejoin="round"/>
<path d="M27.1953 15.7221L35.852 7.06543" stroke="black" stroke-width="2" stroke-linecap="round" stroke-linejoin="round"/>
<path d="M27.1953 15.7217L34.4024 8.51465" stroke="black" stroke-width="2" stroke-linecap="round" stroke-linejoin="round"/>
<path d="M6.98438 35.935L15.641 27.2783" stroke="black" stroke-width="2" stroke-linecap="round" stroke-linejoin="round"/>
</svg>
